<svg width="13" height="13" viewBox="0 0 13 13" fill="none" xmlns="http://www.w3.org/2000/svg">
<path d="M11.9429 12.5714C10.5275 12.5714 9.10853 12.2456 7.68586 11.594C6.26319 10.9424 4.95236 10.0171 3.75336 8.81808C2.56431 7.61907 1.64162 6.30405 0.985286 4.873C0.328429 3.44143 0 2.02662 0 0.628572V0H3.48779L4.15407 3.20807L2.03579 5.18022C2.39407 5.80146 2.76519 6.369 3.14914 6.88286C3.5331 7.39672 3.93303 7.86003 4.34893 8.27279C4.76903 8.71279 5.24255 9.12398 5.7695 9.50636C6.29646 9.88874 6.89779 10.2659 7.5735 10.6378L9.625 8.51008L12.5714 9.10408V12.5714H11.9429Z" fill="#2C554F"/>
</svg>
