<svg width="15" height="14" viewBox="0 0 15 14" fill="none" xmlns="http://www.w3.org/2000/svg">
<path d="M12.9118 0H3.04032C1.90525 0 0.976562 0.92869 0.976562 2.06376V11.9362C0.976562 13.0713 1.90525 14 3.04032 14H12.9128C14.0479 14 14.9766 13.0713 14.9766 11.9362V2.06376C14.9755 0.92869 14.0479 0 12.9118 0ZM12.7792 7.47234H11.1179V13.483H8.63206V7.47234H7.38865V5.40033H8.63206V4.15692C8.63206 2.4667 9.33374 1.46114 11.3304 1.46114H12.9902V3.53263H11.9521C11.1762 3.53263 11.1246 3.82311 11.1246 4.3633L11.1179 5.40033H12.9985L12.7792 7.47234Z" fill="#2C554F"/>
</svg>
