<svg width="14" height="14" viewBox="0 0 14 14" fill="none" xmlns="http://www.w3.org/2000/svg">
<path fill-rule="evenodd" clip-rule="evenodd" d="M3.01217 0.219567C5.65488 -0.0731889 8.32183 -0.0731889 10.9645 0.219567C12.4083 0.380742 13.5722 1.51734 13.7418 2.9664C14.055 5.64608 14.055 8.35312 13.7418 11.0328C13.5722 12.4819 12.4083 13.6185 10.9653 13.7804C8.32234 14.0732 5.65513 14.0732 3.01217 13.7804C1.56843 13.6185 0.40447 12.4819 0.234932 11.0336C-0.0783105 8.35363 -0.0783105 5.64633 0.234932 2.9664C0.40447 1.51734 1.56843 0.380742 3.01217 0.219567ZM10.7897 2.43802C10.588 2.43802 10.3947 2.51812 10.2521 2.66069C10.1095 2.80327 10.0294 2.99665 10.0294 3.19828C10.0294 3.39991 10.1095 3.59329 10.2521 3.73587C10.3947 3.87844 10.588 3.95854 10.7897 3.95854C10.9913 3.95854 11.1847 3.87844 11.3273 3.73587C11.4698 3.59329 11.5499 3.39991 11.5499 3.19828C11.5499 2.99665 11.4698 2.80327 11.3273 2.66069C11.1847 2.51812 10.9913 2.43802 10.7897 2.43802ZM3.3771 6.9996C3.3771 6.04183 3.75757 5.1233 4.43481 4.44606C5.11205 3.76882 6.03059 3.38835 6.98835 3.38835C7.94612 3.38835 8.86465 3.76882 9.54189 4.44606C10.2191 5.1233 10.5996 6.04183 10.5996 6.9996C10.5996 7.95736 10.2191 8.8759 9.54189 9.55314C8.86465 10.2304 7.94612 10.6109 6.98835 10.6109C6.03059 10.6109 5.11205 10.2304 4.43481 9.55314C3.75757 8.8759 3.3771 7.95736 3.3771 6.9996Z" fill="#2C554F"/>
</svg>
