<svg width="14" height="16" viewBox="0 0 14 16" fill="none" xmlns="http://www.w3.org/2000/svg">
<path d="M7.26521 0C5.59874 0.00196598 4.00108 0.66484 2.82271 1.84321C1.64434 3.02159 0.981462 4.61924 0.979496 6.28571C0.977964 7.64748 1.42276 8.97223 2.24578 10.0571C2.24578 10.0571 2.41721 10.2829 2.44521 10.3154L7.26521 16L12.0875 10.3126C12.1126 10.2823 12.2846 10.0571 12.2846 10.0571L12.2852 10.0554C13.1077 8.97091 13.5522 7.64683 13.5509 6.28571C13.549 4.61924 12.8861 3.02159 11.7077 1.84321C10.5293 0.66484 8.93168 0.00196598 7.26521 0ZM7.26521 8.57143C6.81314 8.57143 6.37122 8.43737 5.99534 8.18622C5.61945 7.93506 5.32649 7.57808 5.15349 7.16042C4.98048 6.74276 4.93522 6.28318 5.02342 5.83979C5.11161 5.39641 5.3293 4.98913 5.64897 4.66947C5.96863 4.34981 6.3759 4.13211 6.81929 4.04392C7.26267 3.95572 7.72225 4.00099 8.13991 4.17399C8.55757 4.34699 8.91455 4.63996 9.16571 5.01584C9.41687 5.39172 9.55092 5.83364 9.55092 6.28571C9.55017 6.89169 9.30911 7.47263 8.88062 7.90112C8.45213 8.32961 7.87119 8.57067 7.26521 8.57143Z" fill="#2C554F"/>
</svg>
