<svg width="13" height="11" viewBox="0 0 13 11" fill="none" xmlns="http://www.w3.org/2000/svg">
<path d="M0.088317 1.8062C0.128043 1.31419 0.351551 0.855174 0.714367 0.520487C1.07718 0.185799 1.55271 -2.16065e-05 2.04632 1.88435e-09H10.6892C11.1872 -2.09542e-05 11.6666 0.189126 12.0305 0.529173C12.3943 0.869219 12.6154 1.33478 12.6491 1.83166L6.36838 5.13857L0.088317 1.8062ZM0.0820312 2.69249V8.09286C0.0820312 8.61382 0.288982 9.11345 0.657357 9.48182C1.02573 9.8502 1.52536 10.0571 2.04632 10.0571H10.6892C11.2101 10.0571 11.7098 9.8502 12.0781 9.48182C12.4465 9.11345 12.6535 8.61382 12.6535 8.09286V2.71732L6.55066 5.93057C6.49405 5.96037 6.43102 5.97588 6.36704 5.97577C6.30307 5.97566 6.24009 5.95993 6.18358 5.92995L0.0820312 2.69249Z" fill="#2C554F"/>
</svg>
