<svg width="15" height="14" viewBox="0 0 15 14" fill="none" xmlns="http://www.w3.org/2000/svg">
<path d="M7.97656 2.81385C5.70469 2.81385 3.85781 4.64534 3.85469 6.89828C3.85469 7.66992 4.07344 8.42297 4.48594 9.07065L4.58281 9.2256L4.16719 10.7317L5.72656 10.3257L5.87656 10.4156C6.50781 10.7875 7.23281 10.9858 7.97344 10.9858H7.97656C10.2453 10.9858 12.1422 9.15432 12.1422 6.90138C12.1422 5.81055 11.6672 4.78479 10.8891 4.01315C10.1078 3.23841 9.07656 2.81385 7.97656 2.81385ZM10.3984 8.65229C10.2953 8.9405 9.80156 9.20081 9.56406 9.2349C9.17031 9.29378 8.86406 9.26279 8.07969 8.9281C6.83906 8.39508 6.02656 7.15549 5.96406 7.07492C5.90156 6.99435 5.45781 6.40865 5.45781 5.80435C5.45781 5.20005 5.77656 4.90255 5.89219 4.77859C6.00469 4.65464 6.13906 4.62365 6.22344 4.62365C6.30469 4.62365 6.38906 4.62365 6.46094 4.62674C6.53594 4.62984 6.63906 4.59885 6.73906 4.83747C6.84219 5.08229 7.08906 5.68659 7.12031 5.74857C7.15156 5.81055 7.17344 5.88182 7.12969 5.9624C6.89219 6.43344 6.63906 6.41484 6.76719 6.63177C7.24531 7.4468 7.72344 7.7288 8.45156 8.09138C8.57656 8.15336 8.64844 8.14406 8.72031 8.06039C8.79219 7.97982 9.02969 7.70091 9.11094 7.58005C9.19219 7.45609 9.27656 7.47779 9.38906 7.51807C9.50156 7.55836 10.1109 7.85586 10.2359 7.91784C10.3609 7.97982 10.4422 8.01081 10.4734 8.06039C10.5016 8.11927 10.5016 8.36719 10.3984 8.65229ZM13.4766 0H2.47656C1.64844 0 0.976562 0.666276 0.976562 1.4875V12.3958C0.976562 13.2171 1.64844 13.8833 2.47656 13.8833H13.4766C14.3047 13.8833 14.9766 13.2171 14.9766 12.3958V1.4875C14.9766 0.666276 14.3047 0 13.4766 0ZM7.97344 11.8132C7.14219 11.8132 6.32656 11.6056 5.60469 11.2151L2.97656 11.9L3.67969 9.35266C3.24531 8.60891 3.01719 7.76289 3.01719 6.89518C3.02031 4.18669 5.24219 1.98333 7.97344 1.98333C9.29844 1.98333 10.5422 2.49466 11.4797 3.42435C12.4141 4.35404 12.9766 5.58742 12.9766 6.90138C12.9766 9.60987 10.7047 11.8132 7.97344 11.8132Z" fill="#2C554F"/>
</svg>
