<svg width="40" height="41" viewBox="0 0 40 41" fill="none" xmlns="http://www.w3.org/2000/svg">
<g clip-path="url(#clip0_262_30)">
<rect y="17.1666" width="23.3333" height="23.3333" fill="#767676"/>
<path d="M34.9998 23.8333C34.9998 22.9167 34.2498 22.1667 33.3332 22.1667H29.9998V25.5H33.3332C34.2498 25.5 34.9998 24.75 34.9998 23.8333ZM33.3332 28.8333H29.9998V32.1667H33.3332C34.2498 32.1667 34.9998 31.4167 34.9998 30.5C34.9998 29.5833 34.2498 28.8333 33.3332 28.8333ZM19.9998 23.8333H16.6665V30.5H19.9998C19.9998 32.3333 21.4998 33.8333 23.3332 33.8333H28.3332V20.5H23.3332C21.4998 20.5 19.9998 22 19.9998 23.8333Z" fill="white"/>
<path d="M8.33333 22.1666C8.33333 20.3333 9.83333 18.8333 11.6667 18.8333H14.1667C17.3833 18.8333 20 16.2166 20 13C20 9.78329 17.3833 7.16663 14.1667 7.16663H8.33333C7.41667 7.16663 6.66667 7.91663 6.66667 8.83329C6.66667 9.74996 7.41667 10.5 8.33333 10.5H14.1667C15.55 10.5 16.6667 11.6166 16.6667 13C16.6667 14.3833 15.55 15.5 14.1667 15.5H11.6667C7.98333 15.5 5 18.4833 5 22.1666C5 25.85 7.98333 28.8333 11.6667 28.8333H15V25.5H11.6667C9.83333 25.5 8.33333 24 8.33333 22.1666Z" fill="white"/>
</g>
<defs>
<clipPath id="clip0_262_30">
<rect width="40" height="40" fill="white" transform="translate(0 0.5)"/>
</clipPath>
</defs>
</svg>
