<svg width="41" height="41" viewBox="0 0 41 41" fill="none" xmlns="http://www.w3.org/2000/svg">
<g clip-path="url(#clip0_262_211)">
<rect x="0.5" y="17.1666" width="23.3333" height="23.3333" fill="#767676"/>
<path d="M30.5002 27.1666H27.1668V25.5H13.8335V27.1666H10.5002V25.5H3.8335V33.8333H37.1668V25.5H30.5002V27.1666ZM33.8335 13.8333H28.8335V10.5C28.8335 8.66663 27.3335 7.16663 25.5002 7.16663H15.5002C13.6668 7.16663 12.1668 8.66663 12.1668 10.5V13.8333H7.16683C5.3335 13.8333 3.8335 15.3333 3.8335 17.1666V23.8333H10.5002V20.5H13.8335V23.8333H27.1668V20.5H30.5002V23.8333H37.1668V17.1666C37.1668 15.3333 35.6668 13.8333 33.8335 13.8333ZM25.5002 13.8333H15.5002V10.5H25.5002V13.8333Z" fill="white"/>
</g>
<defs>
<clipPath id="clip0_262_211">
<rect width="40" height="40" fill="white" transform="translate(0.5 0.5)"/>
</clipPath>
</defs>
</svg>
