<svg width="40" height="41" viewBox="0 0 40 41" fill="none" xmlns="http://www.w3.org/2000/svg">
<g clip-path="url(#clip0_262_230)">
<rect y="17.1666" width="23.3333" height="23.3333" fill="#2C554F"/>
<path d="M18.3335 10.5H23.3335L28.8169 4.99996C28.9718 4.84374 29.1562 4.71975 29.3593 4.63514C29.5624 4.55052 29.7802 4.50696 30.0002 4.50696C30.2202 4.50696 30.4381 4.55052 30.6412 4.63514C30.8443 4.71975 31.0286 4.84374 31.1835 4.99996L35.4835 9.31662C35.794 9.62889 35.9682 10.0513 35.9682 10.4916C35.9682 10.9319 35.794 11.3544 35.4835 11.6666L31.6669 15.5H18.3335V18.8333C18.3335 19.2753 18.158 19.6992 17.8454 20.0118C17.5328 20.3244 17.1089 20.5 16.6669 20.5C16.2249 20.5 15.8009 20.3244 15.4884 20.0118C15.1758 19.6992 15.0002 19.2753 15.0002 18.8333V13.8333C15.0002 12.9492 15.3514 12.1014 15.9765 11.4763C16.6016 10.8511 17.4495 10.5 18.3335 10.5ZM8.33355 18.8333V25.5L4.51688 29.3166C4.20646 29.6289 4.03223 30.0513 4.03223 30.4916C4.03223 30.9319 4.20646 31.3544 4.51688 31.6666L8.81688 35.9833C8.97182 36.1395 9.15615 36.2635 9.35925 36.3481C9.56235 36.4327 9.78019 36.4763 10.0002 36.4763C10.2202 36.4763 10.4381 36.4327 10.6412 36.3481C10.8443 36.2635 11.0286 36.1395 11.1835 35.9833L18.3335 28.8333H25.0002C25.4422 28.8333 25.8662 28.6577 26.1787 28.3451C26.4913 28.0326 26.6669 27.6086 26.6669 27.1666V25.5H28.3335C28.7756 25.5 29.1995 25.3244 29.5121 25.0118C29.8246 24.6992 30.0002 24.2753 30.0002 23.8333V22.1666H31.6669C32.1089 22.1666 32.5328 21.991 32.8454 21.6785C33.158 21.3659 33.3335 20.942 33.3335 20.5V18.8333H21.6669V20.5C21.6669 21.384 21.3157 22.2319 20.6906 22.857C20.0654 23.4821 19.2176 23.8333 18.3335 23.8333H15.0002C14.1162 23.8333 13.2683 23.4821 12.6432 22.857C12.0181 22.2319 11.6669 21.384 11.6669 20.5V15.5L8.33355 18.8333Z" fill="#767676"/>
</g>
<defs>
<clipPath id="clip0_262_230">
<rect width="40" height="40" fill="white" transform="translate(0 0.5)"/>
</clipPath>
</defs>
</svg>
