<svg width="41" height="41" viewBox="0 0 41 41" fill="none" xmlns="http://www.w3.org/2000/svg">
<g clip-path="url(#clip0_262_198)">
<rect x="0.5" y="17.1666" width="23.3333" height="23.3333" fill="#2C554F"/>
<path d="M32.1518 3.83337H15.5168C13.6651 3.83337 12.1668 5.33171 12.1668 7.18337V16.5784L4.33013 24.315C4.09532 24.5473 3.9348 24.844 3.86893 25.1676C3.80307 25.4913 3.83483 25.8271 3.96019 26.1327C4.08554 26.4382 4.29884 26.6996 4.57302 26.8837C4.84719 27.0678 5.16988 27.1663 5.50013 27.1667V35.5C5.50013 35.9421 5.67573 36.366 5.98829 36.6786C6.30085 36.9911 6.72477 37.1667 7.1668 37.1667H33.8335C34.2755 37.1667 34.6994 36.9911 35.012 36.6786C35.3245 36.366 35.5001 35.9421 35.5001 35.5V7.18171C35.5001 5.33171 34.0035 3.83337 32.1518 3.83337ZM18.7035 25.685V33.8334H8.83346V24.5534L13.8118 19.6384L18.7035 24.6434V25.685ZM22.1668 15.5H18.8335V12.1667H22.1668V15.5ZM28.8335 28.8334H25.5001V25.5H28.8335V28.8334ZM28.8335 22.1667H25.5001V18.8334H28.8335V22.1667ZM28.8335 15.5H25.5001V12.1667H28.8335V15.5Z" fill="#767676"/>
<path d="M12.1665 25.5H15.4998V28.8333H12.1665V25.5Z" fill="#767676"/>
</g>
<defs>
<clipPath id="clip0_262_198">
<rect width="40" height="40" fill="white" transform="translate(0.5 0.5)"/>
</clipPath>
</defs>
</svg>
