<svg width="41" height="41" viewBox="0 0 41 41" fill="none" xmlns="http://www.w3.org/2000/svg">
<g clip-path="url(#clip0_262_67)">
<rect x="0.5" y="17.1666" width="23.3333" height="23.3333" fill="#2C554F"/>
<path d="M11.1001 31.8L11.5168 35.5L14.2168 32.9333L18.8334 20.2667C17.7001 19.9833 16.7001 19.4167 15.8834 18.6333L11.1001 31.8ZM25.1168 18.6333C24.3001 19.4167 23.2834 19.9833 22.1668 20.2667L26.7834 32.9333L29.4834 35.5L29.9168 31.8L25.1168 18.6333ZM25.4001 14.8333C25.9001 12.2333 24.4001 9.93333 22.1668 9.13333V7.16667C22.1668 6.25 21.4168 5.5 20.5001 5.5C19.5834 5.5 18.8334 6.25 18.8334 7.16667V9.13333C16.9001 9.83333 15.5001 11.6667 15.5001 13.8333C15.5001 16.9 18.2668 19.3333 21.4334 18.75C23.4001 18.3833 25.0168 16.8 25.4001 14.8333ZM20.5001 15.5C19.5834 15.5 18.8334 14.75 18.8334 13.8333C18.8334 12.9167 19.5834 12.1667 20.5001 12.1667C21.4168 12.1667 22.1668 12.9167 22.1668 13.8333C22.1668 14.75 21.4168 15.5 20.5001 15.5Z" fill="#767676"/>
</g>
<defs>
<clipPath id="clip0_262_67">
<rect width="40" height="40" fill="white" transform="translate(0.5 0.5)"/>
</clipPath>
</defs>
</svg>
