<svg width="43" height="44" viewBox="0 0 43 44" fill="none" xmlns="http://www.w3.org/2000/svg">
<path d="M21.6665 0.89856C33.0525 0.89856 42.2983 10.2544 42.2983 21.8146C42.2983 33.3748 33.0525 42.7306 21.6665 42.7306C10.2807 42.7304 1.03469 33.3747 1.03467 21.8146C1.03467 10.2545 10.2807 0.898739 21.6665 0.89856Z" stroke="#2C554F" stroke-width="1.40278"/>
<path fill-rule="evenodd" clip-rule="evenodd" d="M18.3133 15.6902C18.2264 15.6309 18.1113 15.6218 18.015 15.6674C17.919 15.7131 17.8584 15.8057 17.8584 15.907V27.7227C17.8584 27.8239 17.919 27.9165 18.015 27.9622C18.0555 27.9815 18.1001 27.9912 18.1441 27.9912C18.2038 27.9912 18.2633 27.9737 18.3133 27.9394L26.8847 22.0315C26.9581 21.9808 27.0013 21.9002 27.0013 21.8148C27.0013 21.7294 26.9581 21.6489 26.8847 21.5981L18.3133 15.6902Z" stroke="#2C554F" stroke-width="1.40278"/>
</svg>
