<svg width="72" height="15" viewBox="0 0 72 15" fill="none" xmlns="http://www.w3.org/2000/svg">
<path d="M7.55545 0.0891113L9.15199 5.06814H14.3185L10.1387 8.14534L11.7353 13.1244L7.55545 10.0472L3.37564 13.1244L4.97219 8.14534L0.792378 5.06814H5.9589L7.55545 0.0891113Z" fill="#F1E255"/>
<path d="M21.7776 0.0891113L23.3742 5.06814H28.5407L24.3609 8.14534L25.9574 13.1244L21.7776 10.0472L17.5978 13.1244L19.1944 8.14534L15.0145 5.06814H20.1811L21.7776 0.0891113Z" fill="#F1E255"/>
<path d="M35.9998 0.0891113L37.5963 5.06814H42.7629L38.583 8.14534L40.1796 13.1244L35.9998 10.0472L31.82 13.1244L33.4165 8.14534L29.2367 5.06814H34.4032L35.9998 0.0891113Z" fill="#F1E255"/>
<path d="M50.222 0.0891113L51.8185 5.06814H56.985L52.8052 8.14534L54.4018 13.1244L50.222 10.0472L46.0421 13.1244L47.6387 8.14534L43.4589 5.06814H48.6254L50.222 0.0891113Z" fill="#F1E255"/>
<path d="M64.4441 0.0891113L66.0407 5.06814H71.2072L67.0274 8.14534L68.6239 13.1244L64.4441 10.0472L60.2643 13.1244L61.8609 8.14534L57.6811 5.06814H62.8476L64.4441 0.0891113Z" fill="#F1E255"/>
</svg>
