<svg width="25" height="22" viewBox="0 0 25 22" fill="none" xmlns="http://www.w3.org/2000/svg">
<path d="M16.1781 7.33337C17.7694 7.33337 19.2955 7.91284 20.4207 8.94429C21.546 9.97574 22.1781 11.3747 22.1781 12.8334V19.25H18.1781V12.8334C18.1781 12.3471 17.9674 11.8808 17.5923 11.537C17.2172 11.1932 16.7085 11 16.1781 11C15.6477 11 15.139 11.1932 14.7639 11.537C14.3888 11.8808 14.1781 12.3471 14.1781 12.8334V19.25H10.1781V12.8334C10.1781 11.3747 10.8102 9.97574 11.9355 8.94429C13.0607 7.91284 14.5868 7.33337 16.1781 7.33337Z" fill="#2C554F"/>
<path d="M6.1781 8.25H2.1781V19.25H6.1781V8.25Z" fill="#2A2A2A"/>
<path d="M4.1781 5.50004C5.28267 5.50004 6.1781 4.67923 6.1781 3.66671C6.1781 2.65419 5.28267 1.83337 4.1781 1.83337C3.07353 1.83337 2.1781 2.65419 2.1781 3.66671C2.1781 4.67923 3.07353 5.50004 4.1781 5.50004Z" fill="#2C554F"/>
</svg>
