<svg width="23" height="22" viewBox="0 0 23 22" fill="none" xmlns="http://www.w3.org/2000/svg">
<path d="M21.2614 2.74994C20.3836 3.36913 19.4117 3.84271 18.3831 4.15244C17.831 3.51766 17.0973 3.06774 16.2812 2.86354C15.4651 2.65934 14.6059 2.7107 13.82 3.01069C13.034 3.31068 12.3591 3.84481 11.8866 4.54085C11.4141 5.23689 11.1668 6.06125 11.1781 6.90244V7.81911C9.56714 7.86088 7.9709 7.5036 6.53149 6.7791C5.09208 6.0546 3.85418 4.98536 2.92806 3.66661C2.92806 3.66661 -0.738607 11.9166 7.51139 15.5833C5.62354 16.8647 3.37462 17.5073 1.09473 17.4166C9.34473 21.9999 19.4281 17.4166 19.4281 6.87494C19.4272 6.61961 19.4027 6.3649 19.3547 6.11411C20.2903 5.19148 20.9505 4.02659 21.2614 2.74994Z" fill="#2C554F"/>
</svg>
